Coordinates
version=1
nRows=5
nColumns=107
inDegrees=yes

Units are S.I. units (second, meters, Newtons, ...)
If the header above contains a line with 'inDegrees', this indicates whether rotational values are in degrees (yes) or radians (no).

endheader
time	sternoclavicular_r2	sternoclavicular_r3	unrotscap_r3	unrotscap_r2	acromioclavicular_r2	acromioclavicular_r3	acromioclavicular_r1	unrothum_r1	unrothum_r3	unrothum_r2	elv_angle	shoulder_elv	shoulder1_r2	shoulder_rot	elbow_flexion	pro_sup	deviation	flexion	proximal_distal_r1	proximal_distal_r3	cmc_flexion	cmc_abduction	mp_flexion	ip_flexion	mcp2_flexion	mcp2_abduction	pm2_flexion	md2_flexion	mcp3_flexion	mcp3_abduction	pm3_flexion	md3_flexion	mcp4_flexion	mcp4_abduction	pm4_flexion	md4_flexion	mcp5_flexion	mcp5_abduction	pm5_flexion	md5_flexion	bicpt_tx	bicpt_ty	bicpt_tz	bicpt2_tx	bicpt2_ty	bicpt2_tz	ptpt_tx	ptpt_ty	ptpt_tz	FCUpt_tx	FCUpt_ty	FCUpt_tz	EDCpt_tx	EDCpt_ty	EDCpt_tz	APLpt_tx	APLpt_ty	APLpt_tz	FPLpt_tx	FPLpt_ty	FPLpt_tz	FPLpt2_tx	FPLpt2_ty	FPLpt2_tz	PEC1pt2_tx	PEC1pt2_ty	PEC1pt2_tz	PEC1pt3_tx	PEC1pt3_ty	PEC1pt3_tz	PEC2pt2_tx	PEC2pt2_ty	PEC2pt2_tz	PEC2pt3_tx	PEC2pt3_ty	PEC2pt3_tz	PEC3pt2_tx	PEC3pt2_ty	PEC3pt2_tz	PEC3pt3_tx	PEC3pt3_ty	PEC3pt3_tz	DELT2pt2a_tx	DELT2pt2a_ty	DELT2pt2a_tz	DELT2pt2_tx	DELT2pt2_ty	DELT2pt2_tz	LAT1pt2_tx	LAT1pt2_ty	LAT1pt2_tz	LAT1pt3_tx	LAT1pt3_ty	LAT1pt3_tz	LAT2pt2_tx	LAT2pt2_ty	LAT2pt2_tz	LAT2pt3_tx	LAT2pt3_ty	LAT2pt3_tz	LAT3pt2_tx	LAT3pt2_ty	LAT3pt2_tz	LAT3pt3_tx	LAT3pt3_ty	LAT3pt3_tz
      1.10000000	     -0.31925869	      0.13522291	     -0.13522291	      0.31925869	     -0.06464339	      0.52242514	      0.23482650	     -0.23482650	     -0.52242514	      0.06464339	    100.09475934	     75.58733173	     -1.74698311	    -28.73420452	     31.16234765	     65.08153314	      0.30199596	      0.36724938	      0.33520197	      0.18362469	     38.23220863	    -14.92213079	     -2.65446237	      4.38260128	    -17.86923148	     10.82665876	     27.05749607	      3.21407876	    -16.17403086	     -1.73653016	     14.84024514	     15.77675674	     -6.80952845	     -1.00547312	      5.72768753	     21.63505287	     10.89962714	    -14.18903551	     -9.70240429	      5.05173936	      0.00093075	     -0.03117168	     -0.00487530	      0.01590167	     -0.01866540	     -0.00435152	      0.00274121	     -0.06800944	     -0.00529267	      0.01040249	     -0.18288399	     -0.00032759	     -0.00780977	      0.00249761	     -0.00020411	     -0.00048869	     -0.00019548	     -0.00097739	     -0.00062553	     -0.00187659	     -0.00105558	     -0.00001212	     -0.00014375	     -0.00017250	      0.00247759	      0.00869255	      0.00604699	     -0.00810465	      0.01956874	     -0.01856090	      0.00247759	      0.00869255	      0.00604699	      0.00054591	      0.01814097	     -0.00953241	      0.00392594	      0.00483382	      0.01591360	      0.00000000	      0.00764014	      0.00000000	     -0.00709682	     -0.03279653	     -0.00629885	      0.01830618	     -0.00071412	     -0.00689233	     -0.00088185	      0.01478154	     -0.00604699	      0.00243559	      0.02133244	     -0.01763706	     -0.00592101	      0.01280786	     -0.00541710	     -0.01234594	      0.02704349	     -0.03027695	     -0.02318013	      0.01431961	     -0.00726479	     -0.01536944	      0.03124279	     -0.03783569
      1.13333333	     -0.31444701	      0.13318491	     -0.13318491	      0.31444701	     -0.06366912	      0.51455145	      0.23128734	     -0.23128734	     -0.51455145	      0.06366912	    101.41234846	     74.44812413	     -1.76997938	    -34.75774715	     31.49425689	     70.14281533	      0.24724966	      0.27266616	      0.28551530	      0.13633308	     38.27783544	    -15.24080882	     -4.24895697	      4.77871166	    -15.76063088	     10.95706353	     28.69765730	      4.03944033	    -14.51727650	     -1.41527375	     15.58211307	     15.74165109	     -5.11034990	     -0.78736937	      5.74884158	     20.94394966	     12.19750178	    -14.14609604	     -9.02376513	      5.06077638	      0.00094173	     -0.03120972	     -0.00488143	      0.01559141	     -0.01875557	     -0.00361527	      0.00236724	     -0.06825126	     -0.00570038	      0.01095519	     -0.18273902	     -0.00025828	     -0.00841712	      0.00274663	     -0.00031619	     -0.00034124	     -0.00013649	     -0.00068247	     -0.00043678	     -0.00131035	     -0.00073707	     -0.00001209	     -0.00014295	     -0.00017154	      0.00244025	      0.00856154	      0.00595585	     -0.00798250	      0.01927381	     -0.01828117	      0.00244025	      0.00856154	      0.00595585	      0.00053768	      0.01786756	     -0.00938874	      0.00388233	      0.00476096	      0.01580503	      0.00000000	      0.00741009	      0.00000000	     -0.00698986	     -0.03230224	     -0.00610780	      0.02083573	     -0.00092252	     -0.00994654	     -0.00086856	      0.01455876	     -0.00595585	      0.00239889	      0.02101093	     -0.01737124	     -0.00583177	      0.01261483	     -0.00533545	     -0.01215987	      0.02663591	     -0.02982063	     -0.02283078	      0.01410380	     -0.00715530	     -0.01513780	      0.03077192	     -0.03726545
      1.16666667	     -0.31680796	      0.13418490	     -0.13418490	      0.31680796	     -0.06414717	      0.51841484	      0.23302390	     -0.23302390	     -0.51841484	      0.06414717	    100.63826107	     75.00710041	     -1.75646901	    -31.50386182	     31.41521910	     68.03378759	      0.27443449	      0.28525033	      0.31080099	      0.14262517	     37.13615471	    -16.03566920	     -4.69252517	      3.47877308	    -12.82136422	     10.67427291	     30.31591541	      4.16070989	    -11.89735877	     -1.47076440	     15.72870293	     16.17186010	     -3.26338220	     -1.01311575	      6.53711298	     22.08667846	     13.78628634	    -14.13386334	     -7.75159051	      5.07504335	      0.00093912	     -0.03120066	     -0.00487997	      0.01572782	     -0.01873410	     -0.00392643	      0.00252307	     -0.06815050	     -0.00553049	      0.01072392	     -0.18280032	     -0.00028951	     -0.00816404	      0.00264191	     -0.00026780	     -0.00035999	     -0.00014400	     -0.00071998	     -0.00046079	     -0.00138237	     -0.00077758	     -0.00001266	     -0.00016224	     -0.00019469	      0.00245857	      0.00862582	      0.00600057	     -0.00804243	      0.01941852	     -0.01841843	      0.00245857	      0.00862582	      0.00600057	      0.00054172	      0.01800172	     -0.00945924	      0.00390379	      0.00479671	      0.01585869	      0.00000000	      0.00752252	      0.00000000	     -0.00704234	     -0.03254477	     -0.00620118	      0.01952956	     -0.00080874	     -0.00824462	     -0.00087508	      0.01466807	     -0.00600057	      0.00241690	      0.02116869	     -0.01750167	     -0.00587556	      0.01270955	     -0.00537551	     -0.01225117	      0.02683590	     -0.03004454	     -0.02300220	      0.01420969	     -0.00720902	     -0.01525146	      0.03100296	     -0.03754525
      1.20000000	     -0.31493242	      0.13339051	     -0.13339051	      0.31493242	     -0.06376741	      0.51534577	      0.23164438	     -0.23164438	     -0.51534577	      0.06376741	    101.11080894	     74.56305054	     -1.76471653	    -33.71518019	     31.51183554	     69.91761945	      0.24833230	      0.19874075	      0.28654551	      0.09937038	     36.45681249	    -16.49126261	     -7.98920607	      4.05061697	     -9.25575100	     10.72204866	     32.39645944	      5.27803941	     -8.55170987	     -1.15079183	     16.83745239	     16.36437537	      0.08553507	     -1.06029703	      6.87132525	     21.31951873	     16.52937031	    -14.09500901	     -7.01340591	      5.08269265	      0.00094231	     -0.03121174	     -0.00488176	      0.01560646	     -0.01876034	     -0.00364880	      0.00238388	     -0.06824050	     -0.00568224	      0.01093043	     -0.18274563	     -0.00026177	     -0.00839009	      0.00273538	     -0.00031091	     -0.00023642	     -0.00009457	     -0.00047283	     -0.00030261	     -0.00090784	     -0.00051066	     -0.00001281	     -0.00017303	     -0.00020764	      0.00244401	      0.00857476	      0.00596505	     -0.00799482	      0.01930356	     -0.01830939	      0.00244401	      0.00857476	      0.00596505	      0.00053851	      0.01789515	     -0.00940324	      0.00388675	      0.00476831	      0.01581612	      0.00000000	      0.00743313	      0.00000000	     -0.00700065	     -0.03235211	     -0.00612694	      0.02043268	     -0.00088578	     -0.00938859	     -0.00086990	      0.01458123	     -0.00596505	      0.00240259	      0.02104337	     -0.01739806	     -0.00584078	      0.01263431	     -0.00534369	     -0.01217864	      0.02667703	     -0.02986667	     -0.02286602	      0.01412557	     -0.00716634	     -0.01516117	      0.03081942	     -0.03732298
      1.23333333	     -0.31746325	      0.13446245	     -0.13446245	      0.31746325	     -0.06427985	      0.51948715	      0.23350590	     -0.23350590	     -0.51948715	      0.06427985	    100.30671890	     75.16224731	     -1.75068251	    -30.26519393	     31.40219919	     67.70887210	      0.27829715	      0.19589111	      0.31429564	      0.09794556	     34.93201427	    -17.08766794	    -10.08556242	      2.56580823	     -5.65382487	     10.64965409	     34.76366985	      5.93855077	     -4.71535650	     -0.96056910	     17.58166826	     16.82318106	      3.53248670	     -1.34440037	      7.53409665	     21.67709875	     19.52535768	    -14.07444961	     -5.68265101	      5.09334915	      0.00093869	     -0.03119917	     -0.00487973	      0.01574794	     -0.01873056	     -0.00397382	      0.00254708	     -0.06813497	     -0.00550431	      0.01068841	     -0.18280965	     -0.00029402	     -0.00812505	      0.00262589	     -0.00026055	     -0.00023255	     -0.00009302	     -0.00046509	     -0.00029766	     -0.00089298	     -0.00050230	     -0.00001271	     -0.00019539	     -0.00023447	      0.00246365	      0.00864367	      0.00601298	     -0.00805907	      0.01945869	     -0.01845652	      0.00246365	      0.00864367	      0.00601298	      0.00054284	      0.01803895	     -0.00947880	      0.00390972	      0.00480663	      0.01587345	      0.00000000	      0.00755387	      0.00000000	     -0.00705691	     -0.03261209	     -0.00622722	      0.01899513	     -0.00076616	     -0.00762835	     -0.00087689	      0.01469841	     -0.00601298	      0.00242190	      0.02121247	     -0.01753787	     -0.00588771	      0.01273584	     -0.00538663	     -0.01227651	      0.02689140	     -0.03010668	     -0.02304978	      0.01423908	     -0.00722393	     -0.01528300	      0.03106709	     -0.03762291
